<?xml version="1.0" standalone="no"?>
<!DOCTYPE svg PUBLIC "-//W3C//DTD SVG 20010904//EN"
 "http://www.w3.org/TR/2001/REC-SVG-20010904/DTD/svg10.dtd">
<svg version="1.0" xmlns="http://www.w3.org/2000/svg"
 width="600.000000pt" height="600.000000pt" viewBox="0 0 600.000000 600.000000"
 preserveAspectRatio="xMidYMid meet">
<defs>
  <!-- Gradiente metal satinado -->
  <linearGradient id="metalGradient" x1="0%" y1="0%" x2="100%" y2="100%">
    <stop offset="0%" stop-color="#F8F9FA" />
    <stop offset="30%" stop-color="#E5E7EB" />
    <stop offset="60%" stop-color="#9CA3AF" />
    <stop offset="100%" stop-color="#6B7280" />
  </linearGradient>
</defs>
<g transform="translate(0.000000,600.000000) scale(0.100000,-0.100000)"
fill="url(#metalGradient)" stroke="none">
<path d="M2968 4682 c-17 -13 -20 -13 -14 -1 4 8 -2 3 -13 -11 -11 -14 -21
-21 -21 -17 0 5 -7 1 -16 -7 -8 -9 -24 -16 -35 -16 -10 0 -19 -3 -19 -8 0 -4
-27 -22 -60 -40 -33 -18 -62 -37 -65 -42 -3 -5 -14 -7 -25 -5 -11 2 -19 -1
-17 -7 1 -5 -25 -25 -58 -44 -33 -18 -69 -40 -80 -48 -10 -9 -25 -16 -32 -16
-7 0 -13 -5 -13 -12 0 -6 -3 -9 -6 -5 -4 3 -13 -1 -21 -9 -8 -8 -18 -12 -23
-9 -4 3 -11 -2 -14 -10 -3 -8 -9 -14 -13 -13 -12 2 -63 -24 -63 -33 0 -4 -11
-10 -25 -13 -16 -4 -23 -11 -19 -18 4 -6 3 -8 -3 -5 -10 6 -93 -43 -137 -81
-11 -10 -16 -11 -12 -4 5 8 -10 2 -32 -12 -22 -14 -43 -22 -48 -18 -4 4 -4 2
0 -5 4 -7 -3 -14 -16 -19 -13 -4 -42 -20 -65 -35 -23 -16 -46 -29 -52 -29 -6
0 -11 -5 -11 -12 0 -6 -3 -8 -7 -5 -3 4 -12 -1 -19 -11 -11 -14 -13 -147 -14
-669 l0 -652 27 -21 c14 -11 37 -23 51 -27 18 -4 20 -8 10 -14 -9 -6 -8 -9 8
-9 19 0 103 -49 132 -77 7 -7 18 -14 23 -14 5 -1 12 -2 17 -3 12 -3 77 -38 82
-45 10 -14 70 -52 70 -45 0 4 9 -1 20 -11 11 -10 20 -15 20 -11 0 4 9 2 20 -4
11 -6 18 -15 15 -21 -4 -5 3 -9 14 -9 11 0 26 -6 33 -14 12 -12 55 -36 193
-111 22 -12 40 -26 40 -32 0 -6 4 -15 9 -20 5 -5 6 -3 2 5 -12 20 7 14 62 -22
28 -19 52 -32 52 -28 0 4 4 2 8 -5 4 -6 33 -24 64 -41 32 -16 54 -32 51 -36
-3 -3 3 -6 13 -6 11 0 25 -5 32 -12 14 -14 65 -21 57 -7 -6 9 8 13 34 10 7 -2
10 2 7 7 -5 9 29 26 47 23 5 -1 6 2 4 6 -3 5 7 17 21 27 15 12 22 14 17 5 -5
-8 3 -5 16 6 13 12 38 27 54 35 17 8 32 18 35 22 3 3 12 8 20 10 8 2 20 10 26
18 10 12 14 12 30 0 17 -13 18 -13 8 0 -10 12 -4 20 33 42 24 16 41 23 37 16
-4 -6 5 -3 19 8 15 10 27 23 27 27 0 5 5 5 10 2 6 -4 24 5 41 19 17 14 37 26
45 26 8 0 17 7 20 15 4 8 10 12 15 9 5 -3 9 -1 9 3 0 5 9 14 21 21 17 11 20
11 13 0 -4 -7 2 -5 13 5 11 9 25 17 32 17 7 0 10 4 7 9 -6 9 53 38 67 33 5 -1
6 1 4 5 -3 5 12 18 34 30 22 12 36 16 33 10 -4 -7 6 -1 22 14 16 14 38 31 49
39 20 15 20 14 1 -8 -11 -12 -16 -22 -12 -22 4 0 19 14 33 31 15 17 32 28 40
25 8 -3 12 -2 9 3 -7 11 17 21 47 21 18 0 19 2 7 10 -12 8 -10 10 8 10 13 0
20 4 17 10 -3 6 1 10 9 10 8 0 22 10 30 22 14 20 16 100 16 670 l0 647 -55 36
c-30 20 -53 42 -52 48 1 7 -4 11 -12 9 -8 -2 -21 0 -30 4 -9 4 -20 8 -26 9 -5
0 -9 7 -7 14 1 7 -2 10 -7 7 -5 -4 -12 -2 -16 4 -4 6 -10 8 -15 5 -8 -5 -109
60 -121 77 -3 6 -10 9 -15 9 -19 -2 -44 11 -39 20 3 5 -2 6 -11 2 -12 -4 -15
-3 -10 6 4 6 4 10 -1 9 -13 -4 -112 55 -107 64 5 8 -10 12 -34 9 -7 -1 -15 5
-18 13 -3 9 -10 13 -15 10 -5 -3 -9 -1 -9 5 0 5 -13 12 -30 16 -16 4 -33 11
-36 17 -5 7 -2 8 7 4 8 -4 5 0 -5 8 -11 9 -26 16 -33 16 -17 0 -93 48 -111 69
-8 9 -11 10 -7 4 7 -14 -136 65 -147 81 -5 7 -8 7 -8 1 0 -6 -4 -5 -8 1 -4 6
-28 21 -54 33 -27 12 -48 25 -48 30 0 13 -29 9 -52 -7z m354 -201 c178 -103
419 -244 536 -313 l212 -124 0 -649 0 -649 -297 -174 c-164 -96 -405 -236
-535 -313 l-237 -138 -233 135 c-128 75 -273 159 -323 189 -336 197 -435 255
-472 275 l-43 24 0 650 0 651 28 16 c15 8 122 71 237 139 116 68 246 144 290
170 44 26 177 104 295 173 118 69 216 126 217 127 1 0 147 -85 325 -189z"/>
<path d="M2915 4584 c-23 -23 -18 -30 7 -8 19 17 21 17 15 2 -3 -10 -1 -20 6
-24 7 -4 9 -4 5 1 -4 4 -3 14 2 20 16 19 -16 27 -35 9z"/>
<path d="M2700 4370 c-157 -93 -370 -219 -475 -281 l-190 -112 3 -583 2 -582
148 -88 c81 -48 167 -99 192 -114 25 -15 95 -55 155 -90 61 -35 142 -82 180
-105 39 -23 119 -70 178 -104 l108 -62 152 89 c84 49 213 124 287 167 74 43
198 115 275 160 77 45 166 96 198 114 l57 32 0 582 0 582 -22 14 c-13 8 -86
51 -163 96 -77 45 -281 164 -453 264 -173 101 -321 185 -330 186 -10 2 -145
-72 -302 -165z m290 130 c-9 -6 -10 -10 -3 -10 6 0 15 5 18 10 4 6 23 -3 48
-22 23 -18 42 -32 44 -30 9 7 23 1 18 -8 -5 -9 8 -12 31 -9 4 0 10 -4 13 -9 8
-12 74 -47 84 -44 5 1 6 -2 2 -8 -3 -5 1 -10 9 -10 8 0 18 -5 22 -12 5 -7 3
-8 -6 -3 -8 5 -11 4 -7 -3 4 -5 17 -8 29 -4 16 4 19 2 13 -8 -5 -9 -4 -11 4
-6 13 9 64 -28 53 -39 -4 -4 4 -4 18 0 14 4 22 4 17 -1 -6 -6 37 -31 61 -34 4
-1 17 -10 28 -21 12 -11 30 -22 40 -24 11 -1 18 -8 17 -13 -2 -7 4 -9 14 -5
10 4 14 2 10 -4 -4 -6 0 -14 9 -17 10 -4 13 -2 9 7 -4 6 2 3 12 -8 10 -11 25
-20 33 -20 8 0 14 -6 12 -13 -1 -6 4 -12 12 -12 17 0 108 -47 121 -63 6 -7 19
-14 30 -15 11 -2 27 -10 36 -18 8 -8 20 -14 25 -14 5 0 25 -14 44 -31 19 -17
28 -27 20 -24 -10 4 -9 2 2 -8 10 -8 16 -16 13 -19 -5 -4 -7 -243 -7 -778 0
-168 0 -311 0 -318 -1 -16 -97 -67 -117 -63 -7 1 -10 -2 -7 -7 5 -9 -29 -26
-47 -23 -5 1 -6 -3 -3 -8 6 -9 -22 -26 -36 -23 -5 1 -8 -3 -8 -10 0 -6 -3 -9
-6 -5 -4 3 -22 -6 -41 -21 -20 -14 -43 -27 -51 -29 -9 -1 -18 -7 -20 -13 -2
-5 -8 -8 -13 -4 -5 3 -9 0 -9 -5 0 -6 -4 -11 -9 -11 -6 0 -30 -13 -54 -30 -25
-16 -50 -30 -56 -30 -6 0 -37 -18 -68 -40 -32 -22 -64 -40 -70 -40 -7 0 -13
-4 -13 -9 0 -5 -7 -12 -16 -15 -8 -3 -12 -2 -9 4 4 6 -5 5 -20 -2 -18 -8 -22
-14 -13 -20 9 -5 8 -8 -5 -8 -10 0 -33 -11 -50 -24 -48 -35 -62 -42 -52 -25 7
12 -31 -15 -45 -32 -3 -4 -30 -19 -60 -34 -42 -21 -51 -24 -40 -10 14 17 13
18 -4 8 -14 -8 -30 -3 -72 19 -30 16 -54 34 -54 40 0 6 -3 9 -6 6 -7 -7 -70
33 -101 64 -13 12 -23 17 -23 10 0 -6 5 -12 10 -12 6 0 10 -5 10 -10 0 -6 -8
-5 -20 2 -11 7 -18 18 -16 24 7 19 -15 34 -34 24 -12 -7 -25 -1 -49 21 -18 16
-41 29 -52 29 -10 0 -19 5 -19 12 0 6 -3 9 -6 5 -4 -3 -26 7 -49 23 -23 16
-46 26 -50 22 -5 -4 -5 -2 -1 5 3 7 -2 14 -14 18 -11 3 -20 10 -20 15 0 5 -7
7 -15 4 -8 -4 -15 -1 -15 5 0 6 -8 11 -19 11 -10 0 -24 7 -31 15 -7 9 -19 14
-27 11 -8 -3 -11 -2 -8 3 3 5 -4 12 -15 16 -11 4 -41 22 -66 41 -25 20 -42 30
-38 22 9 -15 -23 8 -44 32 -8 8 -11 9 -7 3 3 -7 -14 -1 -38 15 l-44 27 -2 555
c0 305 2 562 4 571 3 10 38 36 78 59 40 24 95 58 124 76 28 19 58 34 66 34 8
0 17 7 21 15 3 8 12 12 19 9 8 -3 17 2 21 11 3 9 10 13 16 10 6 -3 13 1 16 10
4 10 13 14 22 10 9 -3 13 -3 9 1 -7 8 4 15 91 60 28 15 52 32 52 37 0 5 9 7
20 4 11 -3 18 -1 14 4 -3 5 -1 9 5 9 5 0 23 11 39 25 16 13 32 21 36 18 4 -4
10 -3 14 2 4 6 22 21 40 34 30 20 48 28 75 30 5 1 5 6 2 11 -5 9 16 15 38 11
5 -1 6 2 3 7 -2 4 4 13 15 20 10 7 19 8 19 3 0 -5 14 4 31 20 17 16 36 29 43
29 6 0 4 -5 -4 -10z"/>
<path d="M2630 4179 c-13 -5 -27 -13 -30 -17 -3 -4 -14 -14 -24 -22 -18 -13
-19 -13 -11 0 4 8 -3 5 -17 -7 -13 -13 -29 -23 -35 -23 -6 0 -26 -12 -44 -27
-18 -16 -29 -21 -25 -13 5 8 -1 5 -13 -8 -12 -12 -27 -19 -33 -16 -7 4 -8 2
-4 -4 4 -7 1 -12 -8 -12 -9 0 -16 -5 -16 -11 0 -5 -4 -8 -9 -5 -4 3 -18 -5
-31 -18 -17 -19 -20 -28 -11 -43 6 -10 11 -14 11 -10 0 5 7 2 15 -7 9 -8 22
-13 30 -10 8 4 15 2 15 -4 0 -9 27 -20 69 -28 8 -1 17 -7 20 -12 3 -6 22 -15
41 -20 34 -10 33 -10 -20 -10 -120 2 -177 -3 -193 -14 -15 -12 -17 -62 -22
-502 -5 -451 -5 -490 11 -515 27 -40 43 -53 55 -45 8 4 9 3 5 -4 -4 -7 -1 -12
8 -12 8 0 21 -6 28 -13 7 -6 38 -25 68 -41 30 -16 57 -33 60 -37 3 -4 12 -9
20 -11 8 -2 23 -11 33 -20 30 -27 78 -34 89 -13 6 9 9 175 8 397 l-1 380 48
-63 c61 -81 80 -103 121 -146 17 -19 32 -38 32 -43 0 -4 7 -10 15 -14 8 -3 15
-11 15 -18 0 -8 8 -21 18 -29 39 -35 78 -85 75 -96 -2 -6 1 -15 8 -19 8 -5 9
-3 4 6 -5 9 -4 11 3 6 7 -4 12 -12 12 -18 0 -6 10 -19 22 -29 11 -11 17 -19
13 -19 -5 0 5 -15 23 -32 71 -74 131 -151 125 -162 -3 -6 -3 -8 2 -4 4 4 28
-19 52 -52 25 -33 49 -60 55 -60 5 0 7 -4 4 -9 -6 -8 14 -21 42 -27 7 -1 19 4
26 12 8 8 18 14 22 14 4 0 22 11 39 25 18 13 35 21 39 18 3 -4 6 -1 6 5 0 7 3
11 8 10 15 -4 78 30 106 58 16 16 26 22 21 14 -5 -9 0 -8 13 4 32 28 28 46
-27 117 -27 35 -47 67 -45 71 3 4 -2 5 -10 2 -8 -3 -17 2 -20 13 -3 11 -22 37
-41 58 -20 21 -48 55 -64 76 -15 22 -31 36 -35 32 -4 -4 -4 0 0 10 3 9 9 17
13 18 3 0 15 3 26 5 11 3 25 6 32 6 7 1 10 5 8 9 -3 4 5 14 18 22 31 21 107
95 107 104 0 5 5 8 10 8 6 0 10 5 11 10 0 6 6 17 14 25 16 18 66 135 73 170 3
14 6 75 8 135 4 115 -8 174 -47 243 -11 19 -14 30 -7 26 7 -4 4 3 -7 14 -34
36 -46 52 -39 52 17 0 -129 130 -152 136 -13 3 -24 10 -24 16 0 5 -4 6 -10 3
-5 -3 -10 -2 -10 4 0 8 -23 20 -50 26 -3 1 -30 10 -60 20 -48 16 -95 19 -355
22 -191 2 -309 -1 -325 -8z m623 -34 c213 -38 379 -187 428 -385 20 -82 16
-213 -9 -297 -40 -130 -142 -249 -269 -311 l-51 -25 106 -131 c58 -72 124
-152 146 -179 21 -26 37 -49 35 -51 -2 -1 -35 -21 -74 -43 -148 -85 -218 -123
-219 -121 -10 18 -397 497 -513 635 l-152 182 268 3 268 3 48 30 c66 41 90 89
90 181 0 89 -29 140 -102 175 -46 23 -59 24 -338 29 l-290 6 -131 57 c-72 31
-139 57 -148 57 -30 0 -16 15 52 52 89 50 168 95 217 124 39 23 44 24 300 24
178 -1 285 -5 338 -15z m-606 -920 c-1 -327 -3 -595 -4 -595 0 0 -75 44 -165
99 l-163 98 1 39 c1 21 2 246 3 499 l1 460 165 -3 164 -3 -2 -594z m578 571
c21 -8 41 -19 43 -25 2 -6 10 -11 17 -11 12 0 27 -23 30 -45 1 -5 5 -21 10
-35 4 -14 7 -42 7 -64 -2 -42 -40 -128 -54 -120 -4 3 -8 0 -8 -7 0 -6 -8 -9
-20 -6 -11 3 -18 2 -15 -3 5 -8 -14 -28 -27 -29 -5 -1 -125 -1 -269 -1 -194 0
-258 -3 -253 -12 4 -7 3 -8 -4 -4 -15 9 -17 329 -3 355 9 16 33 17 258 19 190
1 257 -1 288 -12z"/>
<path d="M2700 4101 c0 -6 4 -13 10 -16 6 -3 7 1 4 9 -7 18 -14 21 -14 7z"/>
<path d="M2545 4041 c-3 -5 -2 -12 3 -15 5 -3 9 1 9 9 0 17 -3 19 -12 6z"/>
<path d="M3450 4033 c0 -15 18 -35 23 -27 3 5 -1 15 -9 22 -8 7 -14 9 -14 5z"/>
<path d="M2475 4020 c-8 -13 9 -20 24 -11 10 6 9 10 -3 14 -8 3 -18 2 -21 -3z"/>
<path d="M2520 4016 c0 -2 7 -7 16 -10 8 -3 12 -2 9 4 -6 10 -25 14 -25 6z"/>
<path d="M3543 3935 c0 -8 4 -12 9 -9 5 3 6 10 3 15 -9 13 -12 11 -12 -6z"/>
<path d="M3616 3773 c-6 -14 -5 -15 5 -6 7 7 10 15 7 18 -3 3 -9 -2 -12 -12z"/>
<path d="M3339 3473 c-13 -16 -12 -17 4 -4 16 13 21 21 13 21 -2 0 -10 -8 -17
-17z"/>
<path d="M3205 3370 c-3 -6 1 -7 9 -4 18 7 21 14 7 14 -6 0 -13 -4 -16 -10z"/>
<path d="M3576 3352 c-3 -5 1 -9 9 -9 8 0 12 4 9 9 -3 4 -7 8 -9 8 -2 0 -6 -4
-9 -8z"/>
<path d="M2864 3269 c-3 -6 -2 -15 3 -20 5 -5 9 -1 9 11 0 23 -2 24 -12 9z"/>
<path d="M2926 3191 c-3 -5 2 -15 12 -22 15 -12 16 -12 5 2 -7 9 -10 19 -6 22
3 4 4 7 0 7 -3 0 -8 -4 -11 -9z"/>
<path d="M3359 3183 c-13 -16 -12 -17 4 -4 16 13 21 21 13 21 -2 0 -10 -8 -17
-17z"/>
<path d="M3316 3164 c-5 -14 -4 -15 9 -4 17 14 19 20 6 20 -5 0 -12 -7 -15
-16z"/>
<path d="M2990 3086 c7 -7 13 -7 20 0 6 6 3 10 -10 10 -13 0 -16 -4 -10 -10z"/>
<path d="M3085 3030 c-3 -6 1 -7 9 -4 18 7 21 14 7 14 -6 0 -13 -4 -16 -10z"/>
<path d="M3396 3027 c3 -10 9 -15 12 -12 3 3 0 11 -7 18 -10 9 -11 8 -5 -6z"/>
<path d="M3475 2901 c-3 -5 -2 -12 3 -15 5 -3 9 1 9 9 0 17 -3 19 -12 6z"/>
<path d="M3185 2883 c3 -3 0 -11 -5 -18 -7 -8 -5 -12 4 -12 14 0 16 22 3 32
-4 3 -5 2 -2 -2z"/>
<path d="M3544 2819 c-3 -6 -2 -15 3 -20 5 -5 9 -1 9 11 0 23 -2 24 -12 9z"/>
<path d="M3253 2785 c0 -8 4 -12 9 -9 5 3 6 10 3 15 -9 13 -12 11 -12 -6z"/>
<path d="M3315 2710 c-4 -6 -11 -7 -17 -4 -7 4 -8 2 -4 -5 6 -9 11 -9 22 0 14
11 18 19 10 19 -3 0 -8 -5 -11 -10z"/>
<path d="M2775 4511 c-3 -5 -2 -12 3 -15 5 -3 9 1 9 9 0 17 -3 19 -12 6z"/>
<path d="M2695 4459 c-4 -6 -4 -13 -1 -16 3 -4 6 -1 6 6 0 7 5 9 12 5 7 -4 8
-3 4 4 -9 15 -13 15 -21 1z"/>
<path d="M3272 4455 c4 -4 3 -14 -3 -21 -7 -9 -6 -14 3 -20 7 -4 10 -4 6 1 -4
4 -3 14 3 21 7 9 6 14 -3 20 -7 4 -10 4 -6 -1z"/>
<path d="M3369 4403 c-13 -16 -12 -17 4 -4 9 7 17 15 17 17 0 8 -8 3 -21 -13z"/>
<path d="M3325 4390 c-3 -6 1 -7 9 -4 18 7 21 14 7 14 -6 0 -13 -4 -16 -10z"/>
<path d="M2376 4253 c-6 -14 -5 -15 5 -6 7 7 10 15 7 18 -3 3 -9 -2 -12 -12z"/>
<path d="M3616 4248 c3 -4 11 -5 19 -1 21 7 19 12 -4 10 -11 0 -18 -5 -15 -9z"/>
<path d="M3655 4214 c0 -29 1 -29 14 -5 8 14 7 20 -2 24 -7 3 -12 -5 -12 -19z"/>
<path d="M2156 4141 c-19 -7 -19 -8 0 -13 13 -3 21 0 21 8 0 8 -1 14 -1 13 -1
0 -10 -4 -20 -8z"/>
<path d="M3820 4140 c-9 -6 -10 -10 -3 -10 6 0 15 5 18 10 8 12 4 12 -15 0z"/>
<path d="M3858 4103 c7 -3 16 -2 19 1 4 3 -2 6 -13 5 -11 0 -14 -3 -6 -6z"/>
<path d="M2099 4063 c-13 -16 -12 -17 4 -4 9 7 17 15 17 17 0 8 -8 3 -21 -13z"/>
<path d="M4019 4038 c-7 -23 -4 -35 7 -35 9 0 11 4 4 12 -5 7 -7 15 -3 18 3 4
3 7 0 7 -4 0 -7 -1 -8 -2z"/>
<path d="M1993 2785 c0 -8 4 -12 9 -9 5 3 6 10 3 15 -9 13 -12 11 -12 -6z"/>
<path d="M2077 2739 c7 -7 15 -10 18 -7 3 3 -2 9 -12 12 -14 6 -15 5 -6 -5z"/>
<path d="M3920 2728 c6 -7 6 -16 0 -23 -7 -8 -5 -12 4 -12 16 0 15 23 -2 37
-9 7 -9 7 -2 -2z"/>
<path d="M2100 2700 c8 -5 20 -10 25 -10 6 0 3 5 -5 10 -8 5 -19 10 -25 10 -5
0 -3 -5 5 -10z"/>
<path d="M3825 2673 c-14 -11 -15 -14 -4 -10 9 3 23 0 30 -6 11 -10 11 -9 1 4
-6 9 -9 19 -5 22 12 13 -2 6 -22 -10z"/>
<path d="M2120 2671 c0 -5 7 -12 16 -15 14 -5 15 -4 4 9 -14 17 -20 19 -20 6z"/>
<path d="M2202 2671 c-11 -7 -11 -9 0 -14 9 -3 15 1 15 9 0 8 -1 14 -1 14 -1
0 -7 -4 -14 -9z"/>
<path d="M2229 2638 c-5 -18 -6 -38 -1 -34 7 8 12 36 6 36 -2 0 -4 -1 -5 -2z"/>
<path d="M3604 2548 c-4 -7 -4 -10 1 -6 4 4 16 3 26 -3 11 -5 19 -7 19 -5 0 3
-9 10 -19 16 -15 7 -22 7 -27 -2z"/>
<path d="M2590 2436 c0 -2 7 -7 16 -10 8 -3 12 -2 9 4 -6 10 -25 14 -25 6z"/>
<path d="M2626 2382 c-3 -4 4 -9 15 -9 23 -2 25 3 4 10 -8 4 -16 3 -19 -1z"/>
<path d="M2725 2361 c-3 -5 -2 -12 3 -15 5 -3 9 1 9 9 0 17 -3 19 -12 6z"/>
<path d="M3095 2251 c-3 -5 -2 -12 3 -15 5 -3 9 1 9 9 0 17 -3 19 -12 6z"/>
<path d="M3175 4610 c3 -5 11 -10 16 -10 6 0 7 5 4 10 -3 6 -11 10 -16 10 -6
0 -7 -4 -4 -10z"/>
<path d="M3841 4213 c6 -7 17 -13 23 -12 7 0 6 2 -2 6 -6 2 -10 8 -8 12 3 4
-1 8 -9 8 -11 0 -12 -4 -4 -14z"/>
<path d="M3047 2099 c7 -7 15 -10 18 -7 3 3 -2 9 -12 12 -14 6 -15 5 -6 -5z"/>
<path d="M2983 1695 c0 -33 2 -45 4 -27 2 18 2 45 0 60 -2 15 -4 0 -4 -33z"/>
<path d="M683 1623 c9 -2 23 -2 30 0 6 3 -1 5 -18 5 -16 0 -22 -2 -12 -5z"/>
<path d="M5528 1623 c7 -3 16 -2 19 1 4 3 -2 6 -13 5 -11 0 -14 -3 -6 -6z"/>
<path d="M5938 1623 c12 -2 32 -2 45 0 12 2 2 4 -23 4 -25 0 -35 -2 -22 -4z"/>
<path d="M2983 1565 c0 -33 2 -45 4 -27 2 18 2 45 0 60 -2 15 -4 0 -4 -33z"/>
<path d="M2983 1425 c0 -38 2 -53 4 -32 2 20 2 52 0 70 -2 17 -4 1 -4 -38z"/>
<path d="M2498 1303 c12 -2 32 -2 45 0 12 2 2 4 -23 4 -25 0 -35 -2 -22 -4z"/>
<path d="M3078 1303 c23 -2 61 -2 85 0 23 2 4 4 -43 4 -47 0 -66 -2 -42 -4z"/>
<path d="M3338 1303 c34 -2 90 -2 125 0 34 2 6 3 -63 3 -69 0 -97 -1 -62 -3z"/>
<path d="M3618 1303 c6 -2 18 -2 25 0 6 3 1 5 -13 5 -14 0 -19 -2 -12 -5z"/>
<path d="M3693 1303 c15 -2 37 -2 50 0 12 2 0 4 -28 4 -27 0 -38 -2 -22 -4z"/>
<path d="M4098 1303 c12 -2 32 -2 45 0 12 2 2 4 -23 4 -25 0 -35 -2 -22 -4z"/>
<path d="M2983 1160 c0 -30 2 -43 4 -27 2 15 2 39 0 55 -2 15 -4 2 -4 -28z"/>
<path d="M913 1083 c9 -2 25 -2 35 0 9 3 1 5 -18 5 -19 0 -27 -2 -17 -5z"/>
<path d="M3721 1080 c0 -8 4 -22 9 -30 12 -18 12 -2 0 25 -6 13 -9 15 -9 5z"/>
<path d="M5168 1083 c6 -2 18 -2 25 0 6 3 1 5 -13 5 -14 0 -19 -2 -12 -5z"/>
<path d="M69 1033 c-13 -16 -12 -17 4 -4 9 7 17 15 17 17 0 8 -8 3 -21 -13z"/>
<path d="M3012 1000 c0 -14 2 -19 5 -12 2 6 2 18 0 25 -3 6 -5 1 -5 -13z"/>
<path d="M3013 895 c0 -22 2 -30 4 -17 2 12 2 30 0 40 -3 9 -5 -1 -4 -23z"/>
<path d="M3796 835 c-3 -8 -1 -15 4 -15 6 0 10 7 10 15 0 8 -2 15 -4 15 -2 0
-6 -7 -10 -15z"/>
<path d="M655 830 c-3 -5 -1 -10 4 -10 6 0 11 5 11 10 0 6 -2 10 -4 10 -3 0
-8 -4 -11 -10z"/>
<path d="M98 823 c56 -2 148 -2 205 0 56 1 10 3 -103 3 -113 0 -159 -2 -102
-3z"/>
<path d="M588 823 c6 -2 18 -2 25 0 6 3 1 5 -13 5 -14 0 -19 -2 -12 -5z"/>
<path d="M863 823 c37 -2 97 -2 135 0 37 2 6 3 -68 3 -74 0 -105 -1 -67 -3z"/>
<path d="M1303 823 c15 -2 37 -2 50 0 12 2 0 4 -28 4 -27 0 -38 -2 -22 -4z"/>
<path d="M1388 823 c7 -3 16 -2 19 1 4 3 -2 6 -13 5 -11 0 -14 -3 -6 -6z"/>
<path d="M1538 823 c12 -2 32 -2 45 0 12 2 2 4 -23 4 -25 0 -35 -2 -22 -4z"/>
<path d="M1798 823 c23 -2 61 -2 85 0 23 2 4 4 -43 4 -47 0 -66 -2 -42 -4z"/>
<path d="M2098 823 c12 -2 32 -2 45 0 12 2 2 4 -23 4 -25 0 -35 -2 -22 -4z"/>
<path d="M2468 823 c34 -2 88 -2 120 0 31 2 3 3 -63 3 -66 0 -92 -1 -57 -3z"/>
<path d="M2738 823 c12 -2 32 -2 45 0 12 2 2 4 -23 4 -25 0 -35 -2 -22 -4z"/>
<path d="M2908 823 c18 -2 45 -2 60 0 15 2 0 4 -33 4 -33 0 -45 -2 -27 -4z"/>
<path d="M3058 823 c29 -2 74 -2 100 0 26 2 2 3 -53 3 -55 0 -76 -1 -47 -3z"/>
<path d="M3408 823 c6 -2 18 -2 25 0 6 3 1 5 -13 5 -14 0 -19 -2 -12 -5z"/>
<path d="M3838 823 c7 -3 16 -2 19 1 4 3 -2 6 -13 5 -11 0 -14 -3 -6 -6z"/>
<path d="M4098 823 c12 -2 32 -2 45 0 12 2 2 4 -23 4 -25 0 -35 -2 -22 -4z"/>
<path d="M4383 823 c37 -2 96 -2 130 0 34 2 4 3 -68 3 -71 0 -99 -1 -62 -3z"/>
<path d="M4588 823 c7 -3 16 -2 19 1 4 3 -2 6 -13 5 -11 0 -14 -3 -6 -6z"/>
<path d="M4778 823 c34 -2 90 -2 125 0 34 2 6 3 -63 3 -69 0 -97 -1 -62 -3z"/>
<path d="M5203 823 c15 -2 39 -2 55 0 15 2 2 4 -28 4 -30 0 -43 -2 -27 -4z"/>
<path d="M5313 823 c9 -2 23 -2 30 0 6 3 -1 5 -18 5 -16 0 -22 -2 -12 -5z"/>
<path d="M5538 823 c12 -2 32 -2 45 0 12 2 2 4 -23 4 -25 0 -35 -2 -22 -4z"/>
<path d="M5698 823 c12 -2 32 -2 45 0 12 2 2 4 -23 4 -25 0 -35 -2 -22 -4z"/>
<path d="M5858 823 c12 -2 32 -2 45 0 12 2 2 4 -23 4 -25 0 -35 -2 -22 -4z"/>
<path d="M3013 745 c0 -38 2 -53 4 -32 2 20 2 52 0 70 -2 17 -4 1 -4 -38z"/>
<path d="M3058 803 c12 -2 30 -2 40 0 9 3 -1 5 -23 4 -22 0 -30 -2 -17 -4z"/>
<path d="M3138 803 c12 -2 32 -2 45 0 12 2 2 4 -23 4 -25 0 -35 -2 -22 -4z"/>
<path d="M3836 797 c3 -10 9 -15 12 -12 3 3 0 11 -7 18 -10 9 -11 8 -5 -6z"/>
<path d="M4098 803 c12 -2 32 -2 45 0 12 2 2 4 -23 4 -25 0 -35 -2 -22 -4z"/>
<path d="M4636 802 c-3 -4 4 -9 15 -9 23 -2 25 3 4 10 -8 4 -16 3 -19 -1z"/>
<path d="M2994 600 c0 -69 1 -97 3 -62 2 34 2 90 0 125 -2 34 -3 6 -3 -63z"/>
<path d="M3014 575 c0 -55 1 -76 3 -47 2 29 2 74 0 100 -2 26 -3 2 -3 -53z"/>
<path d="M5590 656 c0 -2 8 -10 18 -17 15 -13 16 -12 3 4 -13 16 -21 21 -21
13z"/>
<path d="M5630 616 c0 -2 8 -10 18 -17 15 -13 16 -12 3 4 -13 16 -21 21 -21
13z"/>
<path d="M5648 470 c-7 -11 -20 -20 -28 -21 -10 0 -8 -3 5 -9 19 -8 19 -9 -2
-9 -13 -1 -22 -4 -22 -8 3 -21 -2 -33 -13 -27 -7 5 -8 3 -3 -6 6 -10 4 -12 -8
-7 -10 3 -17 3 -17 -1 0 -4 -10 -12 -22 -17 -34 -15 -29 -47 9 -66 18 -9 29
-20 25 -24 -4 -5 1 -5 11 -2 11 4 16 3 12 -3 -3 -6 1 -13 10 -16 9 -4 25 -24
36 -45 23 -46 34 -48 53 -11 19 36 68 90 86 94 26 6 51 34 44 51 -3 9 -10 14
-15 11 -5 -3 -9 0 -9 5 0 6 -5 11 -11 11 -11 0 -39 25 -39 35 0 3 10 10 23 15
19 7 19 9 3 9 -10 1 -25 -7 -33 -16 -8 -10 -12 -12 -8 -5 4 7 -3 16 -17 21
-13 6 -17 10 -10 10 9 1 8 8 -4 26 -20 30 -39 32 -56 5z m78 -84 c20 -19 50
-38 67 -42 l32 -7 -35 -14 c-47 -20 -98 -70 -105 -105 -9 -37 -18 -35 -33 6
-15 40 -74 96 -102 96 -31 0 -24 18 13 34 43 18 76 51 95 95 l15 36 9 -32 c5
-18 25 -48 44 -67z"/>
<path d="M5684 375 c0 -13 3 -22 7 -19 8 4 6 30 -2 38 -3 3 -5 -5 -5 -19z"/>
<path d="M5630 327 c0 -2 6 -10 14 -16 11 -9 16 -9 22 1 4 7 4 10 -1 6 -4 -4
-14 -3 -22 3 -7 6 -13 9 -13 6z"/>
<path d="M5738 468 c10 -13 10 -17 0 -21 -9 -4 -9 -6 -1 -6 20 -2 24 16 5 30
-15 13 -16 12 -4 -3z"/>
<path d="M1140 450 c-9 -6 -10 -10 -3 -10 6 0 15 5 18 10 8 12 4 12 -15 0z"/>
<path d="M1190 448 c0 -5 136 -7 303 -6 302 2 267 6 -106 10 -108 2 -197 0
-197 -4z"/>
<path d="M5797 449 c7 -7 15 -10 18 -7 3 3 -2 9 -12 12 -14 6 -15 5 -6 -5z"/>
<path d="M7 443 c7 -2 19 -2 26 0 6 3 1 5 -13 5 -14 0 -19 -2 -13 -5z"/>
<path d="M98 443 c12 -2 32 -2 45 0 12 2 2 4 -23 4 -25 0 -35 -2 -22 -4z"/>
<path d="M198 443 c6 -2 18 -2 25 0 6 3 1 5 -13 5 -14 0 -19 -2 -12 -5z"/>
<path d="M328 443 c6 -2 18 -2 25 0 6 3 1 5 -13 5 -14 0 -19 -2 -12 -5z"/>
<path d="M768 443 c6 -2 18 -2 25 0 6 3 1 5 -13 5 -14 0 -19 -2 -12 -5z"/>
<path d="M1058 443 c12 -2 32 -2 45 0 12 2 2 4 -23 4 -25 0 -35 -2 -22 -4z"/>
<path d="M2302 443 c82 -2 214 -2 296 0 81 1 14 3 -148 3 -162 0 -229 -2 -148
-3z"/>
<path d="M3263 443 c92 -2 242 -2 335 0 92 1 16 3 -168 3 -184 0 -260 -2 -167
-3z"/>
<path d="M3883 443 c9 -2 23 -2 30 0 6 3 -1 5 -18 5 -16 0 -22 -2 -12 -5z"/>
<path d="M4138 443 c78 -2 206 -2 285 0 78 1 14 3 -143 3 -157 0 -221 -2 -142
-3z"/>
<path d="M4818 443 c6 -2 18 -2 25 0 6 3 1 5 -13 5 -14 0 -19 -2 -12 -5z"/>
<path d="M5058 443 c12 -2 32 -2 45 0 12 2 2 4 -23 4 -25 0 -35 -2 -22 -4z"/>
<path d="M5458 443 c12 -2 32 -2 45 0 12 2 2 4 -23 4 -25 0 -35 -2 -22 -4z"/>
<path d="M5878 443 c23 -2 61 -2 85 0 23 2 4 4 -43 4 -47 0 -66 -2 -42 -4z"/>
<path d="M206 413 c-6 -14 -5 -15 5 -6 7 7 10 15 7 18 -3 3 -9 -2 -12 -12z"/>
<path d="M818 423 c12 -2 32 -2 45 0 12 2 2 4 -23 4 -25 0 -35 -2 -22 -4z"/>
<path d="M978 423 c12 -2 32 -2 45 0 12 2 2 4 -23 4 -25 0 -35 -2 -22 -4z"/>
<path d="M1165 420 c-3 -6 1 -7 9 -4 18 7 21 14 7 14 -6 0 -13 -4 -16 -10z"/>
<path d="M1778 423 c12 -2 32 -2 45 0 12 2 2 4 -23 4 -25 0 -35 -2 -22 -4z"/>
<path d="M2258 423 c12 -2 32 -2 45 0 12 2 2 4 -23 4 -25 0 -35 -2 -22 -4z"/>
<path d="M2578 423 c12 -2 32 -2 45 0 12 2 2 4 -23 4 -25 0 -35 -2 -22 -4z"/>
<path d="M2778 423 c34 -2 88 -2 120 0 31 2 3 3 -63 3 -66 0 -92 -1 -57 -3z"/>
<path d="M2982 405 c0 -16 2 -22 5 -12 2 9 2 23 0 30 -3 6 -5 -1 -5 -18z"/>
<path d="M3053 423 c9 -2 23 -2 30 0 6 3 -1 5 -18 5 -16 0 -22 -2 -12 -5z"/>
<path d="M3158 423 c23 -2 61 -2 85 0 23 2 4 4 -43 4 -47 0 -66 -2 -42 -4z"/>
<path d="M3378 423 c12 -2 32 -2 45 0 12 2 2 4 -23 4 -25 0 -35 -2 -22 -4z"/>
<path d="M3538 423 c12 -2 32 -2 45 0 12 2 2 4 -23 4 -25 0 -35 -2 -22 -4z"/>
<path d="M3798 423 c23 -2 61 -2 85 0 23 2 4 4 -43 4 -47 0 -66 -2 -42 -4z"/>
<path d="M3937 409 c4 -13 8 -18 11 -10 2 7 -1 18 -6 23 -8 8 -9 4 -5 -13z"/>
<path d="M4198 423 c23 -2 61 -2 85 0 23 2 4 4 -43 4 -47 0 -66 -2 -42 -4z"/>
<path d="M4828 423 c12 -2 30 -2 40 0 9 3 -1 5 -23 4 -22 0 -30 -2 -17 -4z"/>
<path d="M5177 423 c18 -2 50 -2 70 0 21 2 7 4 -32 4 -38 0 -55 -2 -38 -4z"/>
<path d="M5533 423 c9 -2 23 -2 30 0 6 3 -1 5 -18 5 -16 0 -22 -2 -12 -5z"/>
<path d="M5858 423 c29 -2 74 -2 100 0 26 2 2 3 -53 3 -55 0 -76 -1 -47 -3z"/>
<path d="M1448 413 c17 -2 47 -2 65 0 17 2 3 4 -33 4 -36 0 -50 -2 -32 -4z"/>
<path d="M3951 370 c0 -8 4 -22 9 -30 12 -18 12 -2 0 25 -6 13 -9 15 -9 5z"/>
<path d="M3013 300 c0 -41 2 -58 4 -37 2 20 2 54 0 75 -2 20 -4 3 -4 -38z"/>
<path d="M5847 349 c7 -7 15 -10 18 -7 3 3 -2 9 -12 12 -14 6 -15 5 -6 -5z"/>
<path d="M2056 325 c-9 -26 -7 -32 5 -12 6 10 9 21 6 23 -2 3 -7 -2 -11 -11z"/>
<path d="M2041 274 c0 -11 3 -14 6 -6 3 7 2 16 -1 19 -3 4 -6 -2 -5 -13z"/>
<path d="M5050 200 c6 -11 13 -20 16 -20 2 0 0 9 -6 20 -6 11 -13 20 -16 20
-2 0 0 -9 6 -20z"/>
<path d="M4021 160 c0 -8 4 -22 9 -30 12 -18 12 -2 0 25 -6 13 -9 15 -9 5z"/>
<path d="M2993 85 c0 -44 2 -61 4 -37 2 23 2 59 0 80 -2 20 -4 1 -4 -43z"/>
<path d="M1961 24 c0 -11 3 -14 6 -6 3 7 2 16 -1 19 -3 4 -6 -2 -5 -13z"/>
<path d="M4060 20 c0 -11 4 -20 9 -20 5 0 7 9 4 20 -3 11 -7 20 -9 20 -2 0 -4
-9 -4 -20z"/>
</g>
</svg>
