<svg viewBox="0 0 200 200" xmlns="http://www.w3.org/2000/svg">
  <defs>
    <!-- Gradiente metal satinado con efecto 3D -->
    <linearGradient id="metalGradient" x1="0%" y1="0%" x2="100%" y2="100%">
      <stop offset="0%" stop-color="#F8F9FA" />
      <stop offset="30%" stop-color="#E5E7EB" />
      <stop offset="60%" stop-color="#9CA3AF" />
      <stop offset="100%" stop-color="#6B7280" />
    </linearGradient>
  </defs>
  
  <!-- Fondo hexagonal -->
  <polygon
    fill="#0B0D10"
    points="100,15 170,55 170,145 100,185 30,145 30,55"
  />
  
  <!-- Hexágono -->
  <polygon
    fill="none"
    stroke="#E5E7EB"
    stroke-width="8"
    points="100,15 170,55 170,145 100,185 30,145 30,55"
  />

  <!-- Letra R profesional escalada y centrada -->
  <g transform="translate(100, 100) scale(0.015, -0.015) translate(-3500, -2400)">
    <path
      fill="url(#metalGradient)"
      d="M2968 4682 c-17 -13 -20 -13 -14 -1 4 8 -2 3 -13 -11 -11 -14 -21 -21 -21 -17 0 5 -7 1 -16 -7 -8 -9 -24 -16 -35 -16 -10 0 -19 -3 -19 -8 0 -4 -27 -22 -60 -40 -33 -18 -62 -37 -65 -42 -3 -5 -14 -7 -25 -5 -11 2 -19 -1 -17 -7 1 -5 -25 -25 -58 -44 -33 -18 -69 -40 -80 -48 -10 -9 -25 -16 -32 -16 -7 0 -13 -5 -13 -12 0 -6 -3 -9 -6 -5 -4 3 -13 -1 -21 -9 -8 -8 -18 -12 -23 -9 -4 3 -11 -2 -14 -10 -3 -8 -9 -14 -13 -13 -12 2 -63 -24 -63 -33 0 -4 -11 -10 -25 -13 -16 -4 -23 -11 -19 -18 4 -6 3 -8 -3 -5 -10 6 -93 -43 -137 -81 -11 -10 -16 -11 -12 -4 5 8 -10 2 -32 -12 -22 -14 -43 -22 -48 -18 -4 4 -4 2 0 -5 4 -7 -3 -14 -16 -19 -13 -4 -42 -20 -65 -35 -23 -16 -46 -29 -52 -29 -6 0 -11 -5 -11 -12 0 -6 -3 -8 -7 -5 -3 4 -12 -1 -19 -11 -11 -14 -13 -147 -14 -669 l0 -652 27 -21 c14 -11 37 -23 51 -27 18 -4 20 -8 10 -14 -9 -6 -8 -9 8 -9 19 0 103 -49 132 -77 7 -7 18 -14 23 -14 5 -1 12 -2 17 -3 12 -3 77 -38 82 -45 10 -14 70 -52 70 -45 0 4 9 -1 20 -11 11 -10 20 -15 20 -11 0 4 9 2 20 -4 11 -6 18 -15 15 -21 -4 -5 3 -9 14 -9 11 0 26 -6 33 -14 12 -12 55 -36 193 -111 22 -12 40 -26 40 -32 0 -6 4 -15 9 -20 5 -5 6 -3 2 5 -12 20 7 14 62 -22 28 -19 52 -32 52 -28 0 4 4 2 8 -5 4 -6 33 -24 64 -41 32 -16 54 -32 51 -36 -3 -3 3 -6 13 -6 11 0 25 -5 32 -12 14 -14 65 -21 57 -7 -6 9 8 13 34 10 7 -2 10 2 7 7 -5 9 29 26 47 23 5 -1 6 2 4 6 -3 5 7 17 21 27 15 12 22 14 17 5 -5 -8 3 -5 16 6 13 12 38 27 54 35 17 8 32 18 35 22 3 3 12 8 20 10 8 2 20 10 26 18 10 12 14 12 30 0 17 -13 18 -13 8 0 -10 12 -4 20 33 42 24 16 41 23 37 16 -4 -6 5 -3 19 8 15 10 27 23 27 27 0 5 5 5 10 2 6 -4 24 5 41 19 17 14 37 26 45 26 8 0 17 7 20 15 4 8 10 12 15 9 5 -3 9 -1 9 3 0 5 9 14 21 21 17 11 20 11 13 0 -4 -7 2 -5 13 5 11 9 25 17 32 17 7 0 10 4 7 9 -6 9 53 38 67 33 5 -1 6 1 4 5 -3 5 12 18 34 30 22 12 36 16 33 10 -4 -7 6 -1 22 14 16 14 38 31 49 39 20 15 20 14 1 -8 -11 -12 -16 -22 -12 -22 4 0 19 14 33 31 15 17 32 28 40 25 8 -3 12 -2 9 3 -7 11 17 21 47 21 18 0 19 2 7 10 -12 8 -10 10 8 10 13 0 20 4 17 10 -3 6 1 10 9 10 8 0 22 10 30 22 14 20 16 100 16 670 l0 647 -55 36 c-30 20 -53 42 -52 48 1 7 -4 11 -12 9 -8 -2 -21 0 -30 4 -9 4 -20 8 -26 9 -5 0 -9 7 -7 14 1 7 -2 10 -7 7 -5 -4 -12 -2 -16 4 -4 6 -10 8 -15 5 -8 -5 -109 60 -121 77 -3 6 -10 9 -15 9 -19 -2 -44 11 -39 20 3 5 -2 6 -11 2 -12 -4 -15 -3 -10 6 4 6 4 10 -1 9 -13 -4 -112 55 -107 64 5 8 -10 12 -34 9 -7 -1 -15 5 -18 13 -3 9 -10 13 -15 10 -5 -3 -9 -1 -9 5 0 5 -13 12 -30 16 -16 4 -33 11 -36 17 -5 7 -2 8 7 4 8 -4 5 0 -5 8 -11 9 -26 16 -33 16 -17 0 -93 48 -111 69 -8 9 -11 10 -7 4 7 -14 -136 65 -147 81 -5 7 -8 7 -8 1 0 -6 -4 -5 -8 1 -4 6 -28 21 -54 33 -27 12 -48 25 -48 30 0 13 -29 9 -52 -7z m354 -201 c178 -103 419 -244 536 -313 l212 -124 0 -649 0 -649 -297 -174 c-164 -96 -405 -236 -535 -313 l-237 -138 -233 135 c-128 75 -273 159 -323 189 -336 197 -435 255 -472 275 l-43 24 0 650 0 651 28 16 c15 8 122 71 237 139 116 68 246 144 290 170 44 26 177 104 295 173 118 69 216 126 217 127 1 0 147 -85 325 -189z"
    />
  </g>
</svg>
